HIERARCHY
ROOT Model_Hips
{
	OFFSET 0.000000 96.915077 0.000000
	CHANNELS 6 Xposition Yposition Zposition Xrotation Yrotation Zrotation
	JOINT Model_Spine
	{
		OFFSET 0.000000 11.137703 -1.289900
		CHANNELS 3 Xrotation Yrotation Zrotation
		JOINT Model_Spine1
		{
			OFFSET 0.000000 12.993942 -1.504922
			CHANNELS 3 Xrotation Yrotation Zrotation
			JOINT Model_Spine2
			{
				OFFSET 0.000000 14.850220 -1.719911
				CHANNELS 3 Xrotation Yrotation Zrotation
				JOINT Model_Neck
				{
					OFFSET 0.000000 16.706543 -1.934903
					CHANNELS 3 Xrotation Yrotation Zrotation
					JOINT Model_Head
					{
						OFFSET 0.000000 10.471298 2.002100
						CHANNELS 3 Xrotation Yrotation Zrotation
						JOINT Model_HeadTop_End
						{
							OFFSET 0.000000 20.842606 3.985100
							CHANNELS 3 Xrotation Yrotation Zrotation
							End Site
							{
								OFFSET 0.000000 21.220154 0.000000
							}
						}
					}
				}
				JOINT Model_LeftShoulder
				{
					OFFSET 7.008500 14.768600 -1.919946
					CHANNELS 3 Xrotation Yrotation Zrotation
					JOINT Model_LeftArm
					{
						OFFSET 14.126271 -3.718048 0.029937
						CHANNELS 3 Xrotation Yrotation Zrotation
						JOINT Model_LeftForeArm
						{
							OFFSET 28.282801 0.000000 0.000000
							CHANNELS 3 Xrotation Yrotation Zrotation
							JOINT Model_LeftHand
							{
								OFFSET 26.204689 0.000000 0.000000
								CHANNELS 3 Xrotation Yrotation Zrotation
								End Site
								{
									OFFSET 26.204704 0.000000 0.000000
								}
							}
						}
					}
				}
				JOINT Model_RightShoulder
				{
					OFFSET -7.008500 14.768555 -1.949840
					CHANNELS 3 Xrotation Yrotation Zrotation
					JOINT Model_RightArm
					{
						OFFSET -14.126281 -3.718018 -0.029932
						CHANNELS 3 Xrotation Yrotation Zrotation
						JOINT Model_RightForeArm
						{
							OFFSET -28.283798 0.000000 -0.000001
							CHANNELS 3 Xrotation Yrotation Zrotation
							JOINT Model_RightHand
							{
								OFFSET -26.204193 0.000000 -0.000001
								CHANNELS 3 Xrotation Yrotation Zrotation
								End Site
								{
									OFFSET -26.204208 0.000000 -0.000001
								}
							}
						}
					}
				}
			}
		}
	}
	JOINT Model_LeftUpLeg
	{
		OFFSET 8.327700 -6.193199 -0.402800
		CHANNELS 3 Xrotation Yrotation Zrotation
		JOINT Model_LeftLeg
		{
			OFFSET 0.735802 -42.108742 -0.610721
			CHANNELS 3 Xrotation Yrotation Zrotation
			JOINT Model_LeftFoot
			{
				OFFSET -0.735806 -36.833748 -0.172876
				CHANNELS 3 Xrotation Yrotation Zrotation
				JOINT Model_LeftToeBase
				{
					OFFSET -0.565857 -11.977769 16.297714
					CHANNELS 3 Xrotation Yrotation Zrotation
					JOINT Model_LeftToe_End
					{
						OFFSET -0.111712 -0.312793 7.857784
						CHANNELS 3 Xrotation Yrotation Zrotation
						End Site
						{
							OFFSET -0.111712 -0.312793 7.857784
						}
					}
				}
			}
		}
	}
	JOINT Model_RightUpLeg
	{
		OFFSET -8.327700 -6.193199 -0.516500
		CHANNELS 3 Xrotation Yrotation Zrotation
		JOINT Model_RightLeg
		{
			OFFSET -0.735785 -42.108738 -0.434061
			CHANNELS 3 Xrotation Yrotation Zrotation
			JOINT Model_RightFoot
			{
				OFFSET 0.735776 -36.833748 -0.021630
				CHANNELS 3 Xrotation Yrotation Zrotation
				JOINT Model_RightToeBase
				{
					OFFSET 0.565817 -11.977745 15.903093
					CHANNELS 3 Xrotation Yrotation Zrotation
					JOINT Model_RightToe_End
					{
						OFFSET 0.111702 -0.312791 7.811342
						CHANNELS 3 Xrotation Yrotation Zrotation
						End Site
						{
							OFFSET 0.111702 -0.312791 7.811342
						}
					}
				}
			}
		}
	}
}
MOTION
Frames: 10
Frame Time: 0.016667
0.124194 82.770241 2.156006 20.911369 -17.781880 -3.589332 14.922432 11.913259 1.135784 1.125354 3.043482 0.718811 1.161055 3.003450 0.698314 -7.397906 -1.715568 1.362032 -7.380274 -1.805182 1.165522 0.000001 0.000001 -0.000000 0.742370 3.088816 -12.371849 42.308634 15.801644 -67.596996 -0.000056 -65.652735 -0.000059 0.000000 0.000003 -0.000000 0.028186 10.433411 18.794070 -26.037550 18.459764 42.054636 0.000017 101.391932 -0.000008 0.000000 -0.000000 -0.000000 -68.479231 1.211024 18.316704 121.258343 -0.151119 0.964127 -9.851246 -1.251894 13.890472 -6.008698 0.000001 -0.000000 0.000001 -0.000000 -0.000000 -25.147169 0.744794 3.697958 56.462394 7.275863 -4.034166 -44.676687 -1.629517 3.006042 -10.973180 -0.000000 0.000001 0.000000 0.000001 0.000000 
0.286482 83.202698 8.603649 20.868294 -16.999222 -1.331111 14.887396 13.641921 -1.570245 1.004734 3.675662 0.370649 1.036918 3.644291 0.348551 -7.474470 -2.093633 1.097733 -7.454355 -2.197636 0.894750 0.000002 -0.000000 -0.000000 0.698607 3.975677 -11.374877 47.611029 18.222144 -66.776212 -0.000012 -69.133399 -0.000005 0.000001 0.000000 -0.000002 0.170576 9.828519 17.135276 -29.887320 20.627612 40.709556 0.000082 104.410745 -0.000075 -0.000002 0.000002 0.000001 -74.127592 1.547359 17.115272 118.524519 -1.151422 0.824522 -12.573653 -1.413120 14.813494 -1.300094 0.000002 0.000006 -0.000002 0.000001 -0.000001 -18.353007 -0.252565 -0.372796 51.236609 8.723500 -5.355097 -42.494565 -1.292518 4.137000 -16.542839 -0.000001 -0.000000 -0.000000 0.000000 0.000000 
0.443691 83.977318 15.346058 21.267512 -14.583052 1.152657 14.365609 14.573836 -4.162684 0.863356 4.096389 0.040045 0.886794 4.075174 0.021441 -7.519230 -2.418804 0.706739 -7.492481 -2.543617 0.500367 0.000001 0.000000 0.000000 0.629876 3.467978 -10.358348 51.952369 21.262888 -65.807397 -0.000020 -72.622000 -0.000012 -0.000000 -0.000002 0.000001 0.330365 8.568442 15.459279 -32.303229 19.924712 38.574108 -0.000022 108.504167 -0.000014 -0.000001 0.000002 -0.000000 -78.679046 2.622839 14.617013 113.377882 -2.295391 0.730260 -13.650044 -1.338904 14.387655 1.001607 -0.000002 0.000004 -0.000001 0.000000 -0.000000 -11.495299 -2.653099 -4.612692 43.827196 8.214983 -6.253217 -37.256698 -0.401405 6.664889 -24.556497 -0.000003 0.000003 0.000001 0.000000 0.000000 
0.535703 84.819328 22.110323 22.098478 -11.323392 3.676287 13.437873 14.925046 -6.730681 0.735483 4.364724 -0.310990 0.746226 4.355244 -0.324179 -7.546556 -2.686894 0.288634 -7.510479 -2.834632 0.079963 0.000000 -0.000000 -0.000000 0.587840 1.957995 -9.657995 55.658238 24.631904 -64.622325 -0.000050 -76.090882 -0.000030 -0.000001 -0.000001 -0.000001 0.456773 7.011237 14.047238 -33.690332 15.942012 36.035655 0.000010 114.214218 -0.000017 -0.000001 0.000001 0.000002 -82.218470 3.991246 11.142466 106.546013 -2.569052 0.661716 -13.662040 -0.964944 11.996163 0.953304 -0.000001 -0.000000 -0.000001 0.000000 -0.000000 -5.792969 -5.922600 -8.363102 35.943211 7.539309 -6.558794 -28.752190 -0.731041 9.620160 -27.803661 -0.000000 -0.000000 -0.000001 -0.000000 0.000000 
0.538515 85.572845 28.756842 23.009763 -7.855819 5.705189 12.436813 14.872880 -8.932137 0.662519 4.495609 -0.674004 0.657909 4.497709 -0.683847 -7.550919 -2.921493 -0.037998 -7.505767 -3.086186 -0.247329 0.000000 -0.000001 0.000000 0.576239 0.329745 -9.312276 58.736710 27.444830 -63.012962 -0.000023 -79.317751 -0.000014 0.000001 -0.000002 0.000001 0.531086 5.473482 13.403108 -35.046783 10.827705 33.317396 -0.000010 119.821831 -0.000017 0.000003 0.000001 0.000001 -84.597849 4.954384 7.292316 98.518423 -1.597676 0.598829 -12.949546 -0.440041 8.248424 0.283511 0.000002 0.000003 0.000001 0.000001 -0.000001 -2.096936 -8.852222 -11.438573 30.107696 7.185967 -5.412866 -17.140942 -2.078639 12.098760 -32.833618 -0.048701 0.553485 0.000000 0.000000 0.000000 
0.517663 86.343987 35.473385 23.725880 -4.507379 6.686856 11.383802 14.551663 -10.132171 0.636244 4.482148 -0.991732 0.617352 4.492281 -1.001900 -7.494690 -3.146418 -0.199721 -7.444235 -3.314997 -0.406466 0.000001 -0.000001 0.000001 0.575492 -0.805349 -9.158666 60.660918 28.776905 -60.981343 0.000057 -81.443435 0.000107 -0.000000 0.000001 0.000002 0.573796 4.168986 13.797425 -35.834144 7.182091 30.556019 0.000009 123.737483 -0.000009 -0.000000 -0.000001 0.000003 -85.393313 5.090232 3.663608 89.405107 -0.023194 0.522428 -11.725231 0.063676 4.133246 0.214509 0.000001 -0.000003 -0.000000 -0.000000 -0.000000 2.018908 -10.935548 -12.053934 22.729478 4.636993 -4.681706 -1.877692 -1.044122 14.793800 -44.399863 -0.703732 1.591407 0.000001 -0.000000 0.000000 
0.543370 86.954758 42.253159 24.205639 -1.491405 6.421555 10.236557 14.060396 -10.037849 0.581329 4.340143 -1.197583 0.554151 4.352340 -1.211915 -7.355957 -3.360116 -0.183428 -7.305787 -3.519108 -0.384307 0.000000 -0.000001 0.000000 0.576850 -1.352400 -9.141391 61.520798 28.854865 -59.023660 -0.000074 -82.686052 -0.000025 -0.000001 -0.000001 -0.000001 0.608006 3.262305 14.962769 -35.182926 5.835557 27.996600 -0.000009 125.804189 -0.000007 -0.000002 0.000000 0.000003 -84.890700 4.346355 0.802366 79.817645 1.136963 0.413171 -10.129894 0.477651 0.104507 0.508836 -0.000000 0.000002 -0.000000 0.000000 -0.000000 10.087874 -12.044050 -9.066739 8.850551 3.017359 -4.851320 14.503533 1.203252 14.690279 -49.656404 -1.655549 1.996855 0.000001 0.000001 0.000000 
0.660675 87.569580 49.155766 24.475578 0.992059 5.151086 8.975227 13.431817 -8.862998 0.557112 4.098819 -1.240780 0.527879 4.111201 -1.253630 -7.156277 -3.524442 -0.053297 -7.111023 -3.667380 -0.246248 -0.000001 0.000001 -0.000000 0.580595 -1.477208 -9.374273 60.786054 27.685152 -57.532890 0.000007 -82.675437 0.000062 0.000000 -0.000003 0.000000 0.627759 2.907191 16.216264 -32.068182 5.470811 26.035551 0.000012 126.326384 -0.000013 0.000003 -0.000003 -0.000001 -82.994325 3.037662 -1.064876 69.987015 1.424787 0.251353 -8.473780 0.813936 -3.871020 0.516340 -0.000001 0.000001 -0.000000 0.000000 -0.000000 11.875359 -10.150749 -6.492514 12.888733 1.547226 -5.223379 14.335001 1.378583 16.648200 -22.646648 0.094122 -0.309520 -0.000005 0.000002 -0.000001 
0.827065 87.861717 55.938103 24.412237 2.895099 3.492866 8.088197 12.510214 -7.275330 0.518868 3.772218 -1.149172 0.494185 3.782252 -1.162351 -6.920626 -3.590036 0.094800 -6.881512 -3.718868 -0.089094 0.000000 -0.000002 -0.000000 0.590457 -1.320480 -9.990935 59.091839 26.100764 -56.738661 -0.000033 -82.556080 0.000002 -0.000000 0.000000 0.000002 0.610612 3.200114 16.956443 -27.459459 5.248763 25.059698 0.000013 125.459401 -0.000027 0.000001 -0.000001 0.000000 -80.352360 1.652659 -2.000212 61.175095 1.079899 0.016624 -7.251756 1.097382 -7.614306 0.167174 -0.000000 0.000004 0.000000 -0.000000 -0.000000 11.395744 -7.679057 -3.881754 22.556765 2.739328 -4.985651 10.600355 0.953400 18.170275 -2.533038 -0.000004 0.000008 -0.000003 0.000000 -0.000000 
1.001415 87.888039 62.629929 23.816658 4.288836 2.107420 7.844745 11.321348 -5.948723 0.584484 3.391731 -0.998601 0.566602 3.398402 -1.014781 -6.673400 -3.553686 0.207582 -6.638930 -3.674712 0.032809 0.000001 -0.000001 0.000000 0.611155 -1.032862 -11.019468 56.390967 24.192018 -56.154274 -0.000040 -82.635344 0.000035 -0.000001 -0.000000 -0.000001 0.558062 4.028236 17.064517 -21.672938 4.802568 25.260475 0.000019 123.561961 -0.000010 0.000000 -0.000002 -0.000001 -77.027622 0.594650 -2.337673 54.153435 0.914773 -0.312845 -6.728692 1.339438 -10.553838 -0.163769 -0.000002 0.000002 0.000000 -0.000000 0.000001 10.304391 -5.700877 -1.775332 33.485095 5.177627 -4.071553 7.939075 0.600013 19.327415 -4.154582 0.000005 0.000004 0.000002 -0.000000 0.000000 
